# xmcd
#
# Track frame offsets: 
#        150
#        13612
#        23269
#        38831
#        52389
#        70496
#        82330
#        98482
#        114185
#        132759
#        143277
#        159543
#        175133
#        181916
#
# Disc length: 2608 seconds
#
# Revision: 1
# Processed by: cddbd v1.5.2PL0 Copyright (c) Steve Scherf et al.
# Submitted via: ExactAudioCopy v0.95a4
#
DISCID=ac0a2e0e
DTITLE=Garth Brooks - Garth Brooks and The Magic Of Christmas
DYEAR=1900
DGENRE=Christmas
TTITLE0=It's The Most Wonderful Time Of The Year
TTITLE1=Let It Snow! Let It Snow! Let It Snow!
TTITLE2=The Christmas Song
TTITLE3=White Christmas
TTITLE4=Baby Jesus Is Born
TTITLE5=God Rest Ye Merry Gentlemen
TTITLE6=Winter Wonderland
TTITLE7=Sleigh Ride
TTITLE8=Have Yourself A Merry Little Christmas
TTITLE9=(There's No Place Like) Home For The Holidays
TTITLE10=Silver Bells
TTITLE11=Go Tell It On The Mountain
TTITLE12=The Wise Men's Journey (iInstrumental)
TTITLE13=O Little Town Of Bethlehem
EXTD=
EXTT0=
EXTT1=
EXTT2=
EXTT3=
EXTT4=
EXTT5=
EXTT6=
EXTT7=
EXTT8=
EXTT9=
EXTT10=
EXTT11=
EXTT12=
EXTT13=
PLAYORDER=
